<svg width="18" height="21" viewBox="0 0 18 21" fill="none" xmlns="http://www.w3.org/2000/svg"><path d="M12.464 11.5a6.99 6.99 0 002.67-5.5h2a8.987 8.987 0 01-3.662 7.246L16 17.624a2 2 0 01-.732 2.732l-3.527-6.108A8.97 8.97 0 018.134 15a8.97 8.97 0 01-3.607-.752L1 20.356a2 2 0 01-.732-2.732l5.063-8.77a4.002 4.002 0 011.803-6.728V0h2v2.126a4.003 4.003 0 011.803 6.728l1.527 2.646zm-1.73 1.002L9.206 9.855c-.7.194-1.441.194-2.142 0l-1.528 2.647A6.99 6.99 0 008.135 13c.918 0 1.795-.177 2.599-.498zM8.134 8a2 2 0 100-4 2 2 0 000 4z" fill="#000"/></svg>