<svg width="23" height="22" viewBox="0 0 23 22" fill="none" xmlns="http://www.w3.org/2000/svg"><path d="M22.836 20.496c0 .83-.699 1.504-1.56 1.504-.531 0-1-.255-1.282-.645h-7.25c-.283.39-.75.645-1.281.645-.53 0-.999-.255-1.281-.645h-7.34c-.282.39-.75.645-1.28.645C.698 22 0 21.327 0 20.496c0-.83.699-1.504 1.561-1.504.53 0 .999.255 1.28.645h2.654a10.732 10.732 0 01-1.646-1.302c-1.697-1.635-2.754-3.722-3.05-5.98A1.496 1.496 0 010 11.042c0-.83.699-1.504 1.561-1.504s1.561.674 1.561 1.505c0 .456-.212.865-.545 1.141.53 3.83 3.687 6.87 7.663 7.378a1.58 1.58 0 011.223-.57c.49 0 .928.218 1.214.559 3.938-.538 7.056-3.563 7.583-7.367a1.478 1.478 0 01-.546-1.141c0-.831.7-1.505 1.561-1.505.862 0 1.561.674 1.561 1.505 0 .564-.322 1.055-.799 1.312-.296 2.258-1.352 4.345-3.05 5.98-.509.49-1.06.925-1.646 1.302h2.653c.283-.39.75-.645 1.281-.645.862 0 1.561.674 1.561 1.504zM8.322 13.322a3.945 3.945 0 01-.427-1.844V3.416C7.895 1.533 9.485 0 11.44 0c.947 0 1.838.355 2.508 1a3.333 3.333 0 011.038 2.416v.622c0 .475-.399.86-.892.86a.924.924 0 01-.223-.029.917.917 0 01-.212.026l-3.98.002v6.36l3.523-.002V4.038c0-.474.4-.86.892-.86.493 0 .892.386.892.86v7.438c0 .684-.143 1.304-.426 1.845a.839.839 0 01-.041.07l-2.325 3.566a.9.9 0 01-.755.402.9.9 0 01-.756-.403l-2.32-3.563a.835.835 0 01-.041-.07zm4.362-.348l-2.487.002 1.242 1.907 1.245-1.909zM9.696 3.18l3.489-.003a1.662 1.662 0 00-.499-.96 1.785 1.785 0 00-1.245-.497c-.888 0-1.624.636-1.745 1.46z" fill="#000"/></svg>