<svg width="70" height="50" viewBox="0 0 70 50" fill="none" xmlns="http://www.w3.org/2000/svg"><path opacity=".8" fill-rule="evenodd" clip-rule="evenodd" d="M28.348 50H2.046A2.044 2.044 0 010 47.959V21.72c0-.22.036-.437.105-.645L6.68 1.396A2.046 2.046 0 018.622 0h6.575c1.13 0 2.046.914 2.046 2.041V19.68h11.105c1.13 0 2.046.914 2.046 2.041V47.96A2.044 2.044 0 0128.348 50zm39.606 0H41.652a2.044 2.044 0 01-2.047-2.041V21.72c0-.22.036-.437.106-.645l6.575-19.679A2.045 2.045 0 0148.227 0h6.576c1.13 0 2.046.914 2.046 2.041V19.68h11.105c1.13 0 2.046.914 2.046 2.041V47.96A2.044 2.044 0 0167.954 50z" fill="#37CDAB"/></svg>