<svg width="18" height="21" viewBox="0 0 18 21" fill="none" xmlns="http://www.w3.org/2000/svg">
<path d="M12.464 11.5C13.2967 10.8455 13.9698 10.0103 14.4324 9.0575C14.8949 8.1047 15.1348 7.05916 15.134 6H17.134C17.135 7.41043 16.804 8.8013 16.1678 10.0601C15.5317 11.3189 14.6081 12.4103 13.472 13.246L16 17.624C16.2652 18.0834 16.337 18.6293 16.1998 19.1416C16.0625 19.6539 15.7273 20.0908 15.268 20.356L11.741 14.248C10.6036 14.7456 9.37539 15.0016 8.13399 15C6.89249 15.0016 5.66429 14.7456 4.52695 14.248L0.999949 20.356C0.540599 20.0908 0.205419 19.6539 0.0681495 19.1416C-0.0691305 18.6293 0.00273949 18.0834 0.267949 17.624L5.33095 8.854C4.82591 8.3574 4.4617 7.73574 4.27551 7.05239C4.08932 6.36905 4.08782 5.64852 4.27115 4.9644C4.45448 4.28028 4.81609 3.65707 5.31904 3.1584C5.822 2.65973 6.44829 2.30347 7.13399 2.126V0H9.13399V2.126C9.81959 2.30347 10.4459 2.65973 10.9489 3.1584C11.4518 3.65707 11.8134 4.28028 11.9968 4.9644C12.1801 5.64852 12.1786 6.36905 11.9924 7.05239C11.8062 7.73574 11.442 8.3574 10.937 8.854L12.464 11.5ZM10.734 12.502L9.20599 9.855C8.50519 10.0495 7.76469 10.0495 7.06399 9.855L5.53595 12.502C6.33999 12.823 7.21599 13 8.13499 13C9.05299 13 9.92999 12.823 10.734 12.502ZM8.13399 8C8.66439 8 9.17309 7.78929 9.54819 7.41421C9.92319 7.03914 10.134 6.53043 10.134 6C10.134 5.46957 9.92319 4.96086 9.54819 4.58579C9.17309 4.21071 8.66439 4 8.13399 4C7.60349 4 7.09479 4.21071 6.71969 4.58579C6.34469 4.96086 6.13399 5.46957 6.13399 6C6.13399 6.53043 6.34469 7.03914 6.71969 7.41421C7.09479 7.78929 7.60349 8 8.13399 8Z" fill="#3E4045"/>
</svg>
