<svg width="24" height="16" viewBox="0 0 24 16" fill="none" xmlns="http://www.w3.org/2000/svg">
<path d="M9.87381 7.27993C10.3719 7.02941 10.7484 6.75039 11.0064 6.44886C11.4654 5.90582 11.692 5.18576 11.692 4.29319C11.692 3.42461 11.4654 2.68205 11.0124 2.0595C10.2563 1.04542 8.97674 0.526377 7.16759 0.499374H0V15.1301H6.68305C7.43611 15.1301 8.13367 15.0656 8.77872 14.9336C9.42377 14.8 9.98182 14.5555 10.4544 14.1985C10.8744 13.888 11.2254 13.5024 11.5044 13.0479C11.9455 12.3608 12.166 11.5823 12.166 10.7152C12.166 9.87514 11.9725 9.15958 11.5885 8.57154C11.1999 7.98349 10.6299 7.55295 9.87381 7.27993ZM2.95674 3.04058H6.18501C6.89457 3.04058 7.47961 3.11709 7.93865 3.2686C8.46969 3.48912 8.73522 3.93766 8.73522 4.62171C8.73522 5.23526 8.5327 5.6643 8.13217 5.90582C7.72863 6.14734 7.20509 6.26885 6.56304 6.26885H2.95674V3.04058ZM8.06166 12.3338C7.70463 12.5064 7.20209 12.5919 6.55854 12.5919H2.95674V8.69005H6.60804C7.24409 8.69455 7.73914 8.77855 8.09316 8.93607C8.72322 9.22109 9.03674 9.74313 9.03674 10.5067C9.03674 11.4068 8.71272 12.0128 8.06166 12.3338Z" fill="white"/>
<path d="M21.6933 1.18188H15.3373V3.00303H21.6933V1.18188Z" fill="white"/>
<path d="M23.9014 8.3691C23.7694 7.52153 23.4783 6.77597 23.0253 6.13241C22.5288 5.40336 21.8987 4.86931 21.1321 4.53179C20.3686 4.19276 19.509 4.02324 18.5519 4.02474C16.9453 4.02474 15.6402 4.52728 14.6306 5.52487C13.624 6.52545 13.12 7.96406 13.12 9.83921C13.12 11.8389 13.6765 13.2835 14.7956 14.1701C15.9102 15.0581 17.1973 15.5007 18.6584 15.5007C20.4271 15.5007 21.8027 14.9741 22.7853 13.924C23.4138 13.261 23.7694 12.6084 23.8474 11.9679H20.9191C20.7496 12.2844 20.5531 12.5319 20.3281 12.7119C19.92 13.042 19.389 13.207 18.7379 13.207C18.1184 13.207 17.5934 13.0705 17.1553 12.799C16.4323 12.3639 16.0542 11.6019 16.0062 10.5173H23.9974C24.0094 9.58269 23.9794 8.86414 23.9014 8.3691ZM16.0782 8.64962C16.1832 7.94606 16.4383 7.38802 16.8433 6.97548C17.2483 6.56445 17.8214 6.35743 18.5549 6.35593C19.2315 6.35593 19.797 6.54945 20.2576 6.93798C20.7121 7.32951 20.9686 7.89806 21.0211 8.64962H16.0782Z" fill="white"/>
</svg>
