<svg width="19" height="18" viewBox="0 0 19 18" fill="none" xmlns="http://www.w3.org/2000/svg">
<path d="M1.5 18C1.23478 18 0.98043 17.8946 0.79289 17.7071C0.60536 17.5196 0.5 17.2652 0.5 17V1C0.5 0.73478 0.60536 0.48043 0.79289 0.29289C0.98043 0.10536 1.23478 0 1.5 0H17.5C17.7652 0 18.0196 0.10536 18.2071 0.29289C18.3946 0.48043 18.5 0.73478 18.5 1V17C18.5 17.2652 18.3946 17.5196 18.2071 17.7071C18.0196 17.8946 17.7652 18 17.5 18H1.5ZM5.5 7H2.5V16H5.5V7ZM16.5 7H7.5V16H16.5V7ZM16.5 2H2.5V5H16.5V2Z" fill="#000000"/>
</svg>
