<svg width="21" height="18" viewBox="0 0 21 18" fill="none" xmlns="http://www.w3.org/2000/svg">
<path d="M1.5 0H19.5C19.7652 0 20.0196 0.10536 20.2071 0.29289C20.3946 0.48043 20.5 0.73478 20.5 1V17C20.5 17.2652 20.3946 17.5196 20.2071 17.7071C20.0196 17.8946 19.7652 18 19.5 18H1.5C1.23478 18 0.98043 17.8946 0.79289 17.7071C0.60536 17.5196 0.5 17.2652 0.5 17V1C0.5 0.73478 0.60536 0.48043 0.79289 0.29289C0.98043 0.10536 1.23478 0 1.5 0ZM2.5 2V16H18.5V2H2.5ZM10.5 12H16.5V14H10.5V12ZM7.167 9L4.338 6.172L5.753 4.757L9.995 9L5.753 13.243L4.338 11.828L7.167 9Z" fill="#3E4045"/>
</svg>
