<svg focusable="false" class="section-dribble__icon" width="80" height="21" viewBox="0 0 80 21" fill-rule="evenodd"
    xmlns="http://www.w3.org/2000/svg">
    <path d="M30.7304 15.061C30.5558 15.3357 30.4163 15.5714 30.261 15.7961C29.7639 16.5151 29.2843 17.2478 28.7509 17.9387C28.4633 18.3107 28.0996 18.6329 27.7354 18.9363C26.4728 19.9883 24.9737 19.4414 24.2401 18.5257C24.0452 18.2827 23.8847 18.0127 23.7191 17.7705C23.3582 18.0949 23.0107 18.4421 22.6269 18.7436C22.0099 19.229 21.3218 19.5439 20.508 19.5007C19.5952 19.4524 18.9027 19.0323 18.4114 18.2726C17.928 17.5249 17.737 16.682 17.6433 15.8139C17.5331 14.7948 17.5652 13.775 17.6726 12.7565C17.6911 12.5814 17.7012 12.404 17.6967 12.228C17.6887 11.8995 17.5559 11.7217 17.2339 11.662C16.7902 11.5801 16.3407 11.5284 15.9056 11.465C15.6639 12.0922 15.4507 12.708 15.1922 13.3038C14.5269 14.837 13.6887 16.2724 12.6565 17.5893C12.44 17.8655 12.1894 18.1215 11.9234 18.3507C11.0055 19.1437 9.93533 19.2361 8.90442 18.5927C8.53767 18.3639 8.22048 18.0555 7.91375 17.8101C7.53814 18.2335 7.1767 18.7147 6.74203 19.1165C5.59429 20.178 4.26905 20.3286 2.88217 19.6727C1.27064 18.9107 0.369282 17.5882 0.0865316 15.8403C-0.115111 14.5943 0.027632 13.3884 0.599409 12.255C1.08734 11.2875 1.78255 10.5125 2.87831 10.2589C3.70999 10.0664 4.55486 10.1082 5.37656 10.442C5.32377 9.9478 5.25876 9.4626 5.22223 8.97547C5.06709 6.8966 5.10394 4.83238 5.74862 2.82191C5.90859 2.32319 6.11473 1.84523 6.4448 1.4302C7.112 0.591443 8.16914 0.42955 9.04797 1.04961C9.78438 1.56924 10.1857 2.3256 10.4488 3.15921C10.753 4.12204 10.8013 5.12125 10.7862 6.12109C10.7342 9.53228 10.0905 12.825 8.78389 15.9829C8.74929 16.0668 8.75315 16.1992 8.79708 16.2755C8.93773 16.5203 9.08707 16.765 9.2678 16.9805C9.47201 17.2242 9.61395 17.2266 9.89413 17.0768C10.8972 16.5396 11.6352 15.7534 12.2067 14.7684C12.8938 13.5841 13.5181 12.3781 13.9337 11.0704C13.9793 10.9267 13.973 10.839 13.8433 10.7233C13.0689 10.0318 12.6742 9.16489 12.7947 8.12159C12.9054 7.16391 13.7553 6.69367 14.6446 7.07781C15.4727 7.43555 15.9027 8.12481 16.1121 8.96839C16.2326 9.45423 16.2204 9.45874 16.7265 9.53261C17.3638 9.62578 18.007 9.68855 18.6378 9.81359C19.6697 10.0181 20.1343 10.5751 20.1325 11.6271C20.1314 12.2858 20.0456 12.9438 20.0109 13.6023C19.9679 14.416 19.9385 15.2307 20.1309 16.0318C20.1772 16.2255 20.2493 16.4119 20.3454 16.5862C20.5638 16.9786 20.9389 17.1118 21.3454 16.9202C21.577 16.8111 21.8063 16.6611 21.9819 16.477C22.3467 16.0946 22.6787 15.6807 23.0131 15.2708C23.0627 15.2101 23.072 15.0999 23.0671 15.0141C22.9695 13.3278 23.0881 11.6538 23.3538 9.98916C23.4765 9.22153 23.7204 9.0915 24.4393 9.3823C25.1911 9.68645 25.4958 10.128 25.4724 10.942C25.443 11.9547 25.3789 12.9668 25.355 13.9795C25.3387 14.6694 25.3266 15.3656 25.5222 16.0373C25.5917 16.2758 25.6969 16.517 25.8405 16.7185C26.1751 17.1889 26.7381 17.2454 27.154 16.8489C27.3851 16.6286 27.597 16.3761 27.7674 16.1067C28.6723 14.6731 29.5624 13.2302 30.453 11.7875C30.5018 11.7088 30.5296 11.6025 30.5286 11.5091C30.5106 9.71043 30.5861 7.91657 30.8201 6.1322C30.9937 4.80695 31.2155 3.48831 31.7454 2.25093C31.9244 1.833 32.1574 1.42135 32.4424 1.06908C33.0264 0.347476 33.8476 0.286646 34.5784 0.865021C35.189 1.34829 35.4622 2.00713 35.5173 2.76687C35.6032 3.95001 35.3563 5.08874 35.0321 6.21314C34.4007 8.40321 33.473 10.4716 32.4269 12.4911C32.3494 12.6458 32.3112 12.8172 32.3157 12.9901C32.3532 14.0894 32.44 15.1836 32.8431 16.2225C32.962 16.5288 33.0896 16.8386 33.2641 17.1147C33.4419 17.3964 33.6548 17.6696 33.9019 17.8914C34.3703 18.3119 34.8879 18.3267 35.3904 17.9462C35.6285 17.7654 35.8391 17.5511 36.0156 17.3099C36.4682 16.6897 36.7097 15.9807 36.7759 15.2174C36.7846 15.1186 36.7158 14.9942 36.647 14.9111C36.4522 14.6754 36.2144 14.4725 36.037 14.2254C35.4497 13.4069 35.0094 12.5186 34.8502 11.5106C34.8362 11.4196 34.8288 11.3277 34.8282 11.2357C34.8209 10.4814 35.2924 10.1156 36.0055 10.3755C36.3195 10.49 36.6297 10.6879 36.8684 10.9227C37.7292 11.7679 38.2561 12.8031 38.477 13.9903C38.5066 14.1479 38.5005 14.3017 38.7279 14.3287C39.0738 14.3704 39.2262 14.3334 39.3375 14.0996C39.4194 13.9277 39.4603 13.7338 39.5554 13.5706C39.7406 13.2541 39.9544 12.9546 40.1507 12.6446C40.3518 12.3274 40.5508 12.0091 40.7397 11.6847C40.774 11.626 40.7595 11.535 40.7585 11.4597C40.736 9.66859 40.8174 7.88245 41.0501 6.10548C41.2176 4.8261 41.4314 3.55204 41.9314 2.35393C42.1212 1.89947 42.3675 1.45032 42.6737 1.06715C43.2506 0.345224 44.0863 0.290186 44.8094 0.867435C45.4177 1.3536 45.6911 2.01179 45.745 2.77137C45.8297 3.95436 45.5826 5.09308 45.2585 6.21733C44.624 8.41464 43.6967 10.4919 42.6381 12.5132C42.5897 12.6055 42.5316 12.7117 42.5347 12.8099C42.5746 13.97 42.6523 15.1261 43.0693 16.2272C43.2629 16.739 43.4903 17.2335 43.8633 17.6439C43.9759 17.7696 44.1018 17.8826 44.2389 17.981C44.6584 18.2781 45.1042 18.3045 45.5252 18.0063C45.7721 17.8317 46.0075 17.6199 46.1918 17.3804C46.6802 16.7456 46.9327 16.0092 47.0054 15.2134C47.0133 15.1274 46.9859 15.0019 46.9266 14.9515C46.2191 14.354 45.7835 13.5719 45.4386 12.7378C45.2756 12.345 45.1926 11.9185 45.0785 11.5057C45.0583 11.4335 45.059 11.354 45.0571 11.2772C45.0373 10.456 45.5553 10.0971 46.3279 10.3961C46.7558 10.5617 47.0894 10.8566 47.3754 11.2024C48.0772 12.0521 48.5617 13.0075 48.7225 14.1084C48.7421 14.2423 48.7999 14.2916 48.915 14.3178C49.3529 14.4182 49.5236 14.3106 49.6514 13.874C49.6873 13.7515 49.7576 13.6371 49.8258 13.5278C50.1818 12.9546 50.5458 12.3854 50.8968 11.8091C50.953 11.7174 50.985 11.5949 50.984 11.4871C50.9687 9.81922 51.0322 8.15522 51.2303 6.49847C51.3996 5.08745 51.6121 3.6811 52.159 2.35876C52.3524 1.89045 52.6123 1.43004 52.9303 1.03721C53.4853 0.350534 54.3204 0.301773 55.0164 0.850055C55.635 1.33718 55.9174 1.99876 55.973 2.76735C56.0589 3.95049 55.8107 5.08922 55.4871 6.21363C54.8563 8.40402 53.9282 10.4719 52.882 12.4911C52.8038 12.6456 52.7649 12.8171 52.7691 12.9903C52.8096 14.097 52.9052 15.1968 53.3027 16.2457C53.4916 16.743 53.7166 17.2213 54.0721 17.6242C54.1782 17.7454 54.2962 17.8556 54.4244 17.9532C54.8603 18.2816 55.3217 18.3098 55.7687 17.9968C56.01 17.8276 56.2377 17.618 56.4165 17.3843C56.9035 16.7486 57.159 16.0138 57.2311 15.2179C57.2391 15.131 57.2152 15.0038 57.1563 14.9541C56.4371 14.3456 56.0056 13.5465 55.646 12.7005C55.4321 12.1969 55.2671 11.6773 55.2852 11.1202C55.299 10.6844 55.5063 10.3817 55.851 10.3295C56.0286 10.3026 56.2211 10.3131 56.3975 10.3514C56.7763 10.4336 57.0824 10.6601 57.3463 10.9327C58.1912 11.8044 58.7375 12.8363 58.9339 14.0371C58.9698 14.2554 59.0628 14.3268 59.2525 14.3308C59.4823 14.3355 59.7207 14.3732 59.9398 14.3246C60.1445 14.2792 60.3455 14.162 60.5139 14.0326C60.5906 13.9736 60.6346 13.7972 60.6106 13.6934C59.8235 10.2848 60.0065 6.89644 60.8077 3.52114C60.9995 2.71264 61.2884 1.93632 61.7318 1.2263C61.8213 1.08319 61.9197 0.945758 62.0263 0.814811C62.8343 -0.175057 63.9923 -0.271453 64.9585 0.57181C65.6071 1.13812 65.9544 1.88627 66.1983 2.68834C66.5712 3.91316 66.6552 5.17435 66.6365 6.44568C66.6166 7.7941 66.4941 9.12642 66.0195 10.4052C65.5535 11.661 64.7944 12.7354 63.9659 13.7687C63.8269 13.9424 63.6779 14.1091 63.5483 14.2898C63.5086 14.3455 63.4843 14.4543 63.5115 14.509C63.8028 15.0827 64.0976 15.6556 64.4106 16.2174C64.5097 16.3955 64.6558 16.5512 64.7983 16.7007C65.024 16.9384 65.3021 17.0533 65.6397 17.0607C66.5524 17.0805 67.3605 16.8204 68.0694 16.2383C68.2204 16.1142 68.254 16.0042 68.2199 15.8125C67.8005 13.48 68.4224 11.4607 70.1205 9.80779C70.9447 9.00524 71.9626 8.61242 73.1318 8.65297C74.9258 8.71541 76.255 10.3017 75.9916 12.0807C75.7623 13.6261 74.8897 14.7668 73.6866 15.6887C73.0466 16.1788 72.3273 16.518 71.5044 16.7468C71.5962 16.8173 71.6601 16.8746 71.7315 16.9189C72.5574 17.4271 73.4691 17.5393 74.4118 17.4813C76.0713 17.3787 77.3011 16.5116 78.3104 15.2631C78.4792 15.0544 78.6305 14.8318 78.7942 14.6187C78.9854 14.3695 79.1505 14.3453 79.3643 14.5742C79.7415 14.9771 79.9813 15.4519 79.9994 16.0154C80.0087 16.3006 79.9162 16.5582 79.7406 16.7853C78.0684 18.9445 75.8658 19.9183 73.1477 19.7266C71.9267 19.6407 70.8007 19.2768 69.8314 18.5045C69.6282 18.3426 69.4465 18.1545 69.3013 18.0209C68.6547 18.3734 68.043 18.757 67.3903 19.0504C66.5831 19.4133 65.7241 19.5906 64.8321 19.4228C63.8544 19.2383 63.094 18.6846 62.5161 17.9071C62.1207 17.3748 61.8145 16.7771 61.4706 16.2069C61.4271 16.1356 61.3991 16.0553 61.357 15.9635C60.617 16.1817 59.874 16.1735 59.1495 16.027C59.0092 16.5201 58.8906 17.0022 58.7343 17.4713C58.4905 18.2047 58.1093 18.8603 57.4974 19.3494C56.4866 20.1577 55.3883 20.184 54.2576 19.6415C53.3642 19.2129 52.7206 18.505 52.2092 17.6736C51.7649 16.9507 51.4181 16.1844 51.2616 15.3429C51.2563 15.3141 51.2394 15.2877 51.2076 15.211C50.6519 16.1364 49.8424 16.2884 48.925 16.0143C48.7808 16.5206 48.6577 17.0008 48.5059 17.472C48.3202 18.0471 48.031 18.5702 47.6194 19.0175C46.7405 19.9731 45.5553 20.2488 44.3437 19.7821C43.5233 19.4659 42.8892 18.9094 42.3596 18.223C41.7125 17.384 41.3749 16.6258 40.9696 15.1001C40.4647 16.121 39.6521 16.3074 38.7091 16.0169C38.5295 16.6035 38.3842 17.1661 38.1814 17.7073C38.054 18.0476 37.8699 18.3766 37.6605 18.6754C36.7351 19.9933 35.243 20.3613 33.7989 19.6442C33.0003 19.2477 32.3969 18.6345 31.9017 17.9057C31.3854 17.144 31.169 16.6192 30.7304 15.061ZM3.94333 18.0299C4.64852 18.0467 5.27485 17.8486 5.70598 17.2837C6.0708 16.8053 6.35999 16.2691 6.67348 15.7528C6.70405 15.7024 6.68233 15.6081 6.66237 15.5405C6.39118 14.6225 6.1169 13.7055 5.83955 12.7893C5.81187 12.6982 5.77373 12.5962 5.70823 12.5318C4.96265 11.8004 3.66042 11.6913 2.87525 12.5352C2.61278 12.8171 2.3701 13.1427 2.21014 13.4908C1.65815 14.6915 1.74441 15.9084 2.23363 17.1083C2.41178 17.5452 2.7515 17.8318 3.21578 17.9374C3.45298 17.9916 3.70049 18.0008 3.94333 18.0299ZM7.65948 12.9885C7.68893 12.9871 7.71806 12.9855 7.74719 12.9844C7.9197 12.2539 8.1096 11.5271 8.26119 10.7925C8.67333 8.79588 8.94481 6.78283 8.88237 4.73743C8.8629 4.09968 8.80304 3.46449 8.55826 2.86487C8.4189 2.52306 8.25218 2.49619 8.0029 2.76977C7.71629 3.0847 7.57033 3.47238 7.45671 3.87309C7.17573 4.86457 7.11957 5.88437 7.10219 6.90578C7.07676 8.39002 7.18732 9.8675 7.37754 11.3382C7.44931 11.8912 7.56421 12.4386 7.65948 12.9885ZM62.6278 11.9066C62.9799 11.5218 63.2278 11.1116 63.4342 10.677C64.2601 8.94039 64.5472 7.10147 64.4363 5.19511C64.3995 4.55993 64.311 3.92716 64.047 3.33655C63.9627 3.1473 63.8694 2.91991 63.6357 2.91653C63.4011 2.91315 63.3172 3.15229 63.2628 3.33366C63.0913 3.90447 62.9125 4.47705 62.8016 5.06138C62.5197 6.5416 62.4362 8.04354 62.3868 9.54693C62.3604 10.3303 62.4455 11.1023 62.6278 11.9066ZM70.5162 14.8949L70.605 14.9243C70.719 14.8807 70.8343 14.8405 70.9462 14.7925C71.9813 14.3461 72.85 13.7008 73.3476 12.6607C73.485 12.374 73.5603 12.0326 73.5672 11.7141C73.579 11.171 73.1269 10.8533 72.5978 10.9795C72.1958 11.0754 71.8762 11.3078 71.6018 11.6065C71.0736 12.1813 70.7634 12.868 70.6329 13.6287C70.5608 14.0449 70.5529 14.4723 70.5162 14.8949ZM33.7377 2.6378C33.0676 3.18158 32.2258 7.54869 32.3964 8.32983C33.0287 7.3633 33.8951 3.712 33.7377 2.6378ZM43.9832 2.67353C43.3865 3.1679 42.4666 7.53066 42.6351 8.3897C43.4035 6.51858 43.8705 4.63927 43.9832 2.67353ZM52.8358 8.31615C53.5982 6.50732 54.0846 4.63251 54.234 2.67771L54.1159 2.64955C53.3191 4.44921 52.9551 6.35299 52.8358 8.31615Z" />
    <path class="animate__animated animate__bounceIn animate__slower" d="M22.8008 6.37776C22.8014 5.47238 23.4321 4.7886 24.3409 4.70813C25.1663 4.63507 25.9674 5.29101 26.1157 6.16196C26.1927 6.61352 26.1445 7.05028 25.9411 7.46274C25.6486 8.05624 25.0517 8.35943 24.3973 8.25547C23.4532 8.10565 22.8 7.33737 22.8008 6.37776Z" fill="white" />
</svg>