<svg viewBox="0 0 181 181" fill="none" xmlns="http://www.w3.org/2000/svg">
<path d="M87.8438 177.738C134.702 177.738 172.688 139.07 172.688 91.3691C172.688 43.6688 134.702 5 87.8438 5C40.9858 5 3 43.6688 3 91.3691C3 139.07 40.9858 177.738 87.8438 177.738Z" fill="#EC407A"/>
<path d="M90.5 0C40.6006 0 0 40.6006 0 90.5C0 140.399 40.6006 181 90.5 181C140.399 181 181 140.399 181 90.5C181 40.6006 140.399 0 90.5 0ZM169.654 91.1788C150.49 86.1221 130.84 85.5338 112.118 89.3914C109.562 83.0111 106.801 76.7327 103.837 70.5334C120.772 62.6147 136.429 51.8791 150.162 38.6096C162.278 52.5126 169.688 70.6352 169.688 90.5C169.688 90.7262 169.654 90.9412 169.654 91.1788ZM142.164 30.6229C129.336 43.0101 114.743 53.1009 98.9278 60.4766C90.4774 44.2998 80.5903 28.8469 69.4022 14.2537C76.1331 12.3872 83.1808 11.3125 90.5 11.3125C110.24 11.3125 128.284 18.6204 142.164 30.6229ZM58.2254 18.2584C69.7076 32.8741 79.7871 48.4401 88.3732 64.7414C64.617 73.8141 38.8245 77.2983 12.9981 74.2779C18.2358 49.2094 35.3855 28.5075 58.2254 18.2584ZM11.3125 90.5C11.3125 88.8031 11.4596 87.1402 11.5727 85.4772C18.2697 86.2691 24.9667 86.7895 31.6411 86.7895C52.9312 86.7895 73.848 82.6265 93.4526 74.9906C96.1676 80.6468 98.7242 86.3822 101.089 92.1969C73.2824 100.545 48.508 118.351 31.8334 143.499C19.1294 129.449 11.3125 110.885 11.3125 90.5ZM40.1028 151.531C55.4426 127.413 78.8368 110.41 105.161 102.717C112.31 122.401 117.458 142.843 120.455 163.76C111.213 167.561 101.1 169.688 90.5 169.688C71.3706 169.688 53.8022 162.866 40.1028 151.531ZM131.067 158.375C127.956 138.442 123.023 118.928 116.27 100.093C133.363 96.8802 151.248 97.6382 168.669 102.559C165.015 126.27 150.864 146.497 131.067 158.375Z" fill="#C2185B"/>
</svg>
