<svg width="20" height="20" viewBox="0 0 20 20" fill="none" xmlns="http://www.w3.org/2000/svg">
<path d="M15.9735 3.06144L3.04004 15.973L3.98203 16.9166L16.9155 4.00503L15.9735 3.06144Z" fill="white"/>
<path d="M3.98203 3.06201L3.04004 4.0056L15.9735 16.9171L16.9155 15.9736L3.98203 3.06201Z" fill="white"/>
<path d="M12.0621 12.2172C10.2252 14.0539 9.34568 16.587 9.64923 19.1666L10.9732 19.0108C10.7177 16.8392 11.4583 14.7066 13.0048 13.1599C14.6081 11.5566 16.8943 10.8125 19.1165 11.169L19.3278 9.85254C16.6837 9.42813 13.967 10.3123 12.0621 12.2172Z" fill="white"/>
<path d="M9.66437 0.818848L8.33461 0.914863C8.48215 2.96088 7.7266 4.97463 6.25816 6.4431C4.81418 7.90643 2.85707 8.64111 0.751484 8.51244L0.669922 9.84334C0.857031 9.8549 1.04258 9.86045 1.22746 9.86045C3.51125 9.86045 5.61746 8.99111 7.20414 7.38268C8.94328 5.6435 9.83996 3.25107 9.66437 0.818848Z" fill="white"/>
<path d="M10 0C4.48602 0 0 4.48602 0 10C0 15.514 4.48602 20 10 20C15.514 20 20 15.514 20 10C20 4.48602 15.514 0 10 0ZM10 18.6667C5.22109 18.6667 1.33332 14.7789 1.33332 10C1.33332 5.22109 5.22109 1.33332 10 1.33332C14.7789 1.33332 18.6667 5.22109 18.6667 10C18.6667 14.7789 14.7789 18.6667 10 18.6667Z" fill="white"/>
</svg>
