<svg width="30" height="32" viewBox="0 0 30 32" fill="none" xmlns="http://www.w3.org/2000/svg">
<path d="M1.41931 7.33911H10.7166" stroke="#37CDAB" stroke-width="2" stroke-linecap="round" stroke-linejoin="round"/>
<path d="M3.53207 5.09058L1.14014 7.48251" stroke="#37CDAB" stroke-width="2" stroke-linecap="round" stroke-linejoin="round"/>
<path d="M3.53207 9.87436L1.14014 7.48242" stroke="#37CDAB" stroke-width="2" stroke-linecap="round" stroke-linejoin="round"/>
<path d="M21.1377 7.11933C18.4922 5.22607 17.3597 7.06017 17.5456 8.07441C17.7316 9.08866 18.9487 9.27461 19.4642 9.35068C23.1071 9.87471 20.6813 14.1684 17.0638 11.4891" stroke="#37CDAB" stroke-width="2" stroke-linecap="round" stroke-linejoin="round"/>
<path d="M19.1687 5.22607V6.20651" stroke="#37CDAB" stroke-width="2" stroke-linecap="round" stroke-linejoin="round"/>
<path d="M19.1599 12.3342L19.1684 13.6528" stroke="#37CDAB" stroke-width="2" stroke-linecap="round" stroke-linejoin="round"/>
<circle cx="19.1686" cy="9.45207" r="8.45207" stroke="#37CDAB" stroke-width="2" stroke-linecap="round" stroke-linejoin="round"/>
<path d="M9.02596 22.9746H4.79993" stroke="#3E4045" stroke-width="2" stroke-linecap="round" stroke-linejoin="round"/>
<path d="M12.0517 25.4515C11.365 26.0858 10.4492 26.4124 9.51608 26.3559C7.4155 26.3559 5.71265 24.653 5.71265 22.5525C5.71265 20.4519 7.4155 18.749 9.51608 18.749C10.4699 18.7498 11.3834 19.1335 12.0517 19.814" stroke="#3E4045" stroke-width="2" stroke-linecap="round" stroke-linejoin="round"/>
<path d="M28.0431 24.9697H17.9006" stroke="#3E4045" stroke-width="2" stroke-linecap="round" stroke-linejoin="round"/>
<path d="M25.651 27.3532L28.0429 24.9697" stroke="#3E4045" stroke-width="2" stroke-linecap="round" stroke-linejoin="round"/>
<path d="M25.651 22.5779L28.0429 24.9698" stroke="#3E4045" stroke-width="2" stroke-linecap="round" stroke-linejoin="round"/>
<path d="M17.7992 21.2172C18.3437 24.633 16.752 28.0358 13.7812 29.8072C10.8103 31.5787 7.05991 31.3612 4.31374 29.2582C1.56756 27.1553 0.379876 23.5913 1.31557 20.2613C2.25126 16.9314 5.12147 14.5076 8.56108 14.1428" stroke="#3E4045" stroke-width="2" stroke-linecap="round" stroke-linejoin="round"/>
</svg>
