<svg width="23" height="22" viewBox="0 0 23 22" fill="none" xmlns="http://www.w3.org/2000/svg">
<path d="M22.8364 20.496C22.8364 21.3267 22.1374 22 21.2753 22C20.7449 22 20.2766 21.745 19.9945 21.3554H12.7435C12.4615 21.745 11.9931 22 11.4628 22C10.9324 22 10.4641 21.745 10.182 21.3554H2.84183C2.55975 21.745 2.09143 22 1.56108 22C0.699001 22 0 21.3267 0 20.496C0 19.6655 0.699001 18.9921 1.56108 18.9921C2.09143 18.9921 2.55975 19.2472 2.84183 19.6366H5.49531C4.90956 19.2603 4.35813 18.8254 3.84904 18.3349C2.15189 16.7 1.09519 14.6126 0.799356 12.3553C0.322495 12.0978 0 11.6066 0 11.0425C0 10.2119 0.699001 9.53849 1.56108 9.53849C2.42316 9.53849 3.12216 10.2119 3.12216 11.0425C3.12216 11.4994 2.91047 11.9084 2.57665 12.1842C3.10665 16.014 6.26418 19.054 10.2401 19.5616C10.5261 19.2148 10.9673 18.9921 11.4628 18.9921C11.9532 18.9921 12.3905 19.2101 12.6766 19.5507C16.6147 19.0125 19.7334 15.988 20.2597 12.1842C19.9259 11.9084 19.7142 11.4994 19.7142 11.0425C19.7142 10.2119 20.4132 9.53849 21.2753 9.53849C22.1374 9.53849 22.8364 10.2119 22.8364 11.0425C22.8364 11.6066 22.5139 12.0978 22.037 12.3553C21.7412 14.6126 20.6845 16.7 18.9875 18.3349C18.4782 18.8254 17.9268 19.2603 17.341 19.6366H19.9945C20.2766 19.2472 20.7449 18.9921 21.2753 18.9921C22.1374 18.9921 22.8364 19.6655 22.8364 20.496ZM8.32181 13.3223C8.03799 12.7774 7.89425 12.157 7.8946 11.4784V3.41617C7.8946 1.53285 9.48495 0.000335687 11.4398 0C12.3869 0 13.2777 0.35518 13.9476 1.00024C14.6175 1.64564 14.9864 2.50355 14.9864 3.41617V4.03824C14.9864 4.51293 14.587 4.89765 14.0943 4.89765C14.017 4.89765 13.9424 4.88725 13.8708 4.86945C13.8028 4.88557 13.7321 4.89497 13.6587 4.89497L9.67869 4.89749V11.2572L13.2023 11.255V4.03824C13.2023 3.56372 13.6016 3.17883 14.0943 3.17883C14.587 3.17883 14.9864 3.56372 14.9864 4.03824V11.4762C14.986 12.1597 14.8426 12.7799 14.5604 13.3206C14.5478 13.3448 14.5339 13.3684 14.5189 13.3914L12.1944 16.957C12.0311 17.2073 11.7457 17.3592 11.4389 17.3592C11.1319 17.3592 10.8464 17.2071 10.6833 16.9565L8.36345 13.3934C8.34829 13.3703 8.33453 13.3466 8.32181 13.3223ZM12.6843 12.9741L10.1974 12.9756L11.4394 14.8833L12.6843 12.9741ZM9.69629 3.17866L13.1847 3.17648C13.1319 2.81391 12.9596 2.47921 12.6862 2.21585C12.3534 1.89541 11.9111 1.71883 11.4405 1.71883C10.553 1.719 9.81668 2.355 9.69629 3.17866Z" fill="#000000"/>
</svg>
