<svg width="20" height="20" viewBox="0 0 20 20" fill="none" xmlns="http://www.w3.org/2000/svg">
<path d="M14.4806 0H5.51916C2.4759 0 0 2.47601 0 5.51928V14.4807C0 17.5241 2.4759 20 5.51916 20H14.4806C17.5241 20 20 17.524 20 14.4807V5.51928C20.0001 2.47601 17.5241 0 14.4806 0ZM18.2256 14.4807C18.2256 16.5456 16.5456 18.2255 14.4807 18.2255H5.51916C3.45435 18.2256 1.7745 16.5456 1.7745 14.4807V5.51928C1.7745 3.45447 3.45435 1.7745 5.51916 1.7745H14.4806C16.5455 1.7745 18.2255 3.45447 18.2255 5.51928V14.4807H18.2256Z" fill="white"/>
<path d="M10.0002 4.84663C7.15849 4.84663 4.84668 7.15844 4.84668 10.0001C4.84668 12.8417 7.15849 15.1534 10.0002 15.1534C12.8419 15.1534 15.1537 12.8417 15.1537 10.0001C15.1537 7.15844 12.8419 4.84663 10.0002 4.84663ZM10.0002 13.3788C8.13707 13.3788 6.62118 11.8631 6.62118 10C6.62118 8.13678 8.13695 6.62101 10.0002 6.62101C11.8634 6.62101 13.3792 8.13678 13.3792 10C13.3792 11.8631 11.8633 13.3788 10.0002 13.3788Z" fill="white"/>
<path d="M15.3695 3.34231C15.0276 3.34231 14.6918 3.48072 14.4503 3.72323C14.2077 3.96456 14.0682 4.30054 14.0682 4.64361C14.0682 4.98561 14.2078 5.32146 14.4503 5.56398C14.6917 5.80531 15.0276 5.9449 15.3695 5.9449C15.7126 5.9449 16.0474 5.80531 16.2899 5.56398C16.5324 5.32146 16.6708 4.98549 16.6708 4.64361C16.6708 4.30054 16.5324 3.96456 16.2899 3.72323C16.0486 3.48072 15.7126 3.34231 15.3695 3.34231Z" fill="white"/>
</svg>
