<svg width="124" height="25" viewBox="0 0 124 25" fill="none" xmlns="http://www.w3.org/2000/svg">
<path d="M40.9733 8.78862V0.213922H39.1546L36.5409 6.50085H36.4325L33.8188 0.213922H32V8.78862H33.4454V2.75722H33.5297L35.9326 8.49151H37.0407L39.4436 2.75722H39.528V8.78862H40.9733Z" fill="black"/>
<path d="M48.7422 7.4635H44.6711V5.06282H48.5194V3.81494H44.6711V1.53905H48.7422V0.213922H43.1173V8.78862H48.7422V7.4635Z" fill="black"/>
<path d="M52.2231 1.48557H53.9816C54.9693 1.48557 55.5716 2.03226 55.5716 2.9236C55.5716 3.83277 55.0054 4.35569 54.0178 4.35569H52.2231V1.48557ZM52.2231 5.57385H53.9455L55.6498 8.78862H57.4264L55.5294 5.33616C56.5652 4.96774 57.1675 4.02292 57.1675 2.89389C57.1675 1.24788 56.0232 0.213922 54.1985 0.213922H50.6693V8.78862H52.2231V5.57385Z" fill="black"/>
<path d="M66.5684 5.35399V4.27844H62.961V5.47878H65.0508L65.0447 5.65705C65.0206 6.83956 64.1173 7.63582 62.7924 7.63582C61.2446 7.63582 60.275 6.43548 60.275 4.48642C60.275 2.56112 61.2266 1.36672 62.7442 1.36672C63.8583 1.36672 64.6352 1.90747 64.9484 2.882H66.4961C66.2191 1.12903 64.7496 0 62.7442 0C60.269 0 58.6851 1.75297 58.6851 4.4983C58.6851 7.27929 60.2509 9.00255 62.7683 9.00255C65.0869 9.00255 66.5684 7.58234 66.5684 5.35399Z" fill="black"/>
<path d="M74 7.4635H69.9289V5.06282H73.7772V3.81494H69.9289V1.53905H74V0.213922H68.3751V8.78862H74V7.4635Z" fill="black"/>
<path d="M32 15.2139V23.7886H35.2565C37.8568 23.7886 39.3436 22.2139 39.3436 19.4626C39.3436 16.7708 37.8388 15.2139 35.2565 15.2139H32ZM33.553 16.539H35.0518C36.7553 16.539 37.7605 17.6146 37.7605 19.4864C37.7605 21.3998 36.7794 22.4635 35.0518 22.4635H33.553V16.539Z" fill="black"/>
<path d="M46.7474 22.4635H42.6784V20.0628H46.5247V18.8149H42.6784V16.539H46.7474V15.2139H41.1254V23.7886H46.7474V22.4635Z" fill="black"/>
<path d="M52.8511 23.7886L55.8547 15.2139H54.1994L52.0325 22H51.9301L49.7451 15.2139H48.0296L51.0633 23.7886H52.8511Z" fill="black"/>
<path d="M62.9757 22.4635H58.9066V20.0628H62.7529V18.8149H58.9066V16.539H62.9757V15.2139H57.3536V23.7886H62.9757V22.4635Z" fill="black"/>
<path d="M70.4397 22.4457H66.4549V15.2139H64.9019V23.7886H70.4397V22.4457Z" fill="black"/>
<path d="M75.5682 15C73.0461 15 71.4569 16.7292 71.4569 19.4983C71.4569 22.2674 73.022 24.0025 75.5682 24.0025C78.1023 24.0025 79.6734 22.2615 79.6734 19.4983C79.6734 16.7292 78.0963 15 75.5682 15ZM75.5682 16.3608C77.1091 16.3608 78.0903 17.5789 78.0903 19.4983C78.0903 21.4117 77.1152 22.6418 75.5682 22.6418C74.0031 22.6418 73.0461 21.4117 73.0461 19.4983C73.0461 17.5789 74.0272 16.3608 75.5682 16.3608Z" fill="black"/>
<path d="M81.4551 15.2139V23.7886H83.0081V20.9779H84.8922C86.6498 20.9779 87.8778 19.8132 87.8778 18.1138C87.8778 16.3846 86.692 15.2139 84.9584 15.2139H81.4551ZM83.0081 16.4975H84.5491C85.6687 16.4975 86.3007 17.062 86.3007 18.1138C86.3007 19.1358 85.6506 19.7063 84.543 19.7063H83.0081V16.4975Z" fill="black"/>
<path d="M98.5622 23.7886V15.2139H96.7443L94.1319 21.5008H94.0236L91.4111 15.2139H89.5933V23.7886H91.0379V17.7572H91.1222L93.5239 23.4915H94.6315L97.0332 17.7572H97.1175V23.7886H98.5622Z" fill="black"/>
<path d="M106.327 22.4635H102.258V20.0628H106.104V18.8149H102.258V16.539H106.327V15.2139H100.705V23.7886H106.327V22.4635Z" fill="black"/>
<path d="M109.752 23.7886V17.9533H109.854L114.116 23.7886H115.459V15.2139H113.966V21.0433H113.863L109.602 15.2139H108.253V23.7886H109.752Z" fill="black"/>
<path d="M121.321 23.7886V16.539H124V15.2139H117.096V16.539H119.768V23.7886H121.321Z" fill="black"/>
<path fill-rule="evenodd" clip-rule="evenodd" d="M13.8709 17.4736L18 21.7717L16.0088 24L11.8796 19.7019L13.8709 17.4736ZM8.97827 0L15.1462 6.42032H10.5076V15.2797L2.193 23.9935L0 21.7783L7.37068 13.9852V6.42032H2.84308L8.97827 0Z" fill="black"/>
</svg>
