
<svg width="180" height="24" xmlns="http://www.w3.org/2000/svg">
 <g>
  <path stroke="null" d="m44.6983,11.71215l0,1.3893c0,2.8783 -1.9156,4.7127 -4.9137,4.7127c-3.255,0 -5.2797,-2.2259 -5.2797,-5.818c0,-3.54605 2.048,-5.81031 5.2486,-5.81031c2.5931,0 4.4932,1.45834 4.8514,3.72261l-2.0013,0c-0.405,-1.25879 -1.4095,-1.95726 -2.8501,-1.95726c-1.9624,0 -3.1928,1.54276 -3.1928,4.02956c0,2.5176 1.2538,4.068 3.2551,4.068c1.7131,0 2.8812,-1.0285 2.9124,-2.5559l0.0077,-0.2303l-2.7021,0l0,-1.5504l4.6645,0zm-33.0954,-5.24999l0,11.07569l-1.869,0l0,-7.7906l-0.109,0l-3.1071,7.4068l-1.4328,0l-3.1071,-7.4068l-0.109,0l0,7.7906l-1.8689,0l0,-11.07569l2.3517,0l3.3796,8.12059l0.1402,0l3.3796,-8.12059l2.3518,0zm4.7813,9.36399l5.2641,0l0,1.7117l-7.2732,0l0,-11.07569l7.2732,0l0,1.71162l-5.2641,0l0,2.93967l4.976,0l0,1.6119l-4.976,0l0,3.1008zm9.7651,-7.72145l2.2738,0c1.2771,0 2.0558,0.70614 2.0558,1.85745c0,1.1744 -0.7319,1.8498 -2.009,1.8498l-2.3206,0l0,-3.70725zm0,5.28075l2.2271,0l2.2038,4.1524l2.2972,0l-2.453,-4.4595c1.3394,-0.4758 2.1181,-1.6962 2.1181,-3.1546c0,-2.12606 -1.4795,-3.46159 -3.839,-3.46159l-4.5633,0l0,11.07569l2.0091,0l0,-4.1524zm28.1584,2.4407l-5.2642,0l0,-3.1008l4.976,0l0,-1.6119l-4.976,0l0,-2.93967l5.2642,0l0,-1.71162l-7.2732,0l0,11.07569l7.2732,0l0,-1.7117zm6.7437,1.7117l0,-11.07569l4.2128,0c3.3407,0 5.2877,2.01096 5.2877,5.48789c0,3.5538 -1.924,5.5878 -5.2877,5.5878l-4.2128,0zm3.948,-9.36407l-1.939,0l0,7.65237l1.939,0c2.2345,0 3.5045,-1.3739 3.5045,-3.8454c0,-2.4177 -1.301,-3.80697 -3.5045,-3.80697zm15.1305,7.65237l-5.264,0l0,-3.1008l4.976,0l0,-1.6119l-4.976,0l0,-2.93967l5.264,0l0,-1.71162l-7.273,0l0,11.07569l7.273,0l0,-1.7117zm11.782,-9.36399l-3.886,11.07569l-2.313,0l-3.924,-11.07569l2.219,0l2.827,8.76539l0.132,0l2.804,-8.76539l2.141,0zm9.212,9.36399l-5.264,0l0,-3.1008l4.976,0l0,-1.6119l-4.976,0l0,-2.93967l5.264,0l0,-1.71162l-7.273,0l0,11.07569l7.273,0l0,-1.7117zm4.501,-0.023l5.155,0l0,1.7347l-7.164,0l0,-11.07569l2.009,0l0,9.34099zm11.79,-9.61731c-3.263,0 -5.319,2.23356 -5.319,5.81031c0,3.5768 2.025,5.818 5.319,5.818c3.278,0 5.311,-2.2489 5.311,-5.818c0,-3.57675 -2.04,-5.81031 -5.311,-5.81031zm0,1.75768c1.993,0 3.263,1.57343 3.263,4.05263c0,2.4715 -1.262,4.0603 -3.263,4.0603c-2.025,0 -3.263,-1.5888 -3.263,-4.0603c0,-2.4792 1.269,-4.05263 3.263,-4.05263zm7.616,9.59433l0,-11.07569l4.532,0c2.243,0 3.777,1.51206 3.777,3.74559c0,2.1952 -1.589,3.6996 -3.863,3.6996l-2.437,0l0,3.6305l-2.009,0zm4.002,-9.4178l-1.993,0l0,4.1447l1.986,0c1.432,0 2.273,-0.7368 2.273,-2.057c0,-1.35853 -0.817,-2.0877 -2.266,-2.0877zm18.129,9.4178l0,-11.07569l-2.352,0l-3.379,8.12059l-0.141,0l-3.379,-8.12059l-2.352,0l0,11.07569l1.869,0l0,-7.7906l0.109,0l3.107,7.4068l1.433,0l3.107,-7.4068l0.109,0l0,7.7906l1.869,0zm4.781,-1.7117l5.264,0l0,1.7117l-7.273,0l0,-11.07569l7.273,0l0,1.71162l-5.264,0l0,2.93967l4.976,0l0,1.6119l-4.976,0l0,3.1008zm9.695,1.7117l0,-7.5373l0.133,0l5.513,7.5373l1.736,0l0,-11.07569l-1.931,0l0,7.52959l-0.132,0l-5.513,-7.52959l-1.745,0l0,11.07569l1.939,0zm14.967,-9.36407l0,9.36407l-2.009,0l0,-9.36407l-3.457,0l0,-1.71162l8.931,0l0,1.71162l-3.465,0z" clip-rule="evenodd" fill-rule="evenodd"/>
  <path stroke="null" d="m21.09528,11.61805c0,0 0,0 0.35194,0c0.70387,0 1.93566,0 2.99147,0c1.05581,0 2.11163,0 2.63953,0c0.87984,0 1.58372,0 2.28759,0c0.70387,0 1.93566,0 2.8155,0c0.70387,0 1.42187,-0.17019 1.93566,0c0.38295,0.12685 0.73067,0.30485 1.05581,0.49383c0.22991,0.13363 0.35194,0.24691 0.35194,0.49383c0,0 -0.03273,0.171 -0.35194,0.49383c-0.40377,0.40835 -2.09536,1.33699 -3.51938,1.72839c-2.44216,0.67126 -4.92965,0.89738 -7.39069,0.74074c-1.94164,-0.12358 -3.52395,-1.03407 -4.04728,-2.22222c-0.5851,-1.32839 -0.73005,-2.50216 -0.52791,-3.7037c0.0904,-0.53735 0.47608,-1.07313 0.87984,-1.48148c0.63841,-0.64566 1.23178,-0.74074 1.75969,-0.74074l0.35194,0l0.35194,0" fill-opacity="null" stroke-opacity="null" stroke-width="null" fill="none"/>
 </g>
</svg>