<svg viewBox="0 0 215 24" xmlns="http://www.w3.org/2000/svg">
        <path
          fill-rule="evenodd"
          clip-rule="evenodd"
          d="M18.9384 21.7717L14.5941 17.4736L12.4989 19.7019L16.8434 24L18.9384 21.7717ZM15.9358 6.42032L9.44633 0L2.9913 6.42032H7.75493V13.9852L0 21.7783L2.30732 23.9935L11.0554 15.2797V6.42032H15.9358ZM78.9774 12.4035V13.7928C78.9774 16.6711 77.0618 18.5055 74.0637 18.5055C70.8087 18.5055 68.784 16.2796 68.784 12.6875C68.784 9.14145 70.832 6.87719 74.0326 6.87719C76.6257 6.87719 78.5258 8.33553 78.884 10.5998H76.8827C76.4777 9.34101 75.4732 8.64254 74.0326 8.64254C72.0702 8.64254 70.8398 10.1853 70.8398 12.6721C70.8398 15.1897 72.0936 16.7401 74.0949 16.7401C75.808 16.7401 76.9761 15.7116 77.0073 14.1842L77.015 13.9539H74.3129V12.4035H78.9774ZM45.882 7.15351V18.2292H44.013V10.4386H43.904L40.7969 17.8454H39.3641L36.257 10.4386H36.148V18.2292H34.2791V7.15351H36.6308L40.0104 15.2741H40.1506L43.5302 7.15351H45.882ZM50.6633 16.5175H55.9274V18.2292H48.6542V7.15351H55.9274V8.86513H50.6633V11.8048H55.6393V13.4167H50.6633V16.5175ZM60.4284 8.79605H62.7022C63.9793 8.79605 64.758 9.50219 64.758 10.6535C64.758 11.8279 64.0261 12.5033 62.749 12.5033H60.4284V8.79605ZM60.4284 14.0768H62.6555L64.8593 18.2292H67.1565L64.7035 13.7697C66.0429 13.2939 66.8216 12.0735 66.8216 10.6151C66.8216 8.48904 65.3421 7.15351 62.9826 7.15351H58.4193V18.2292H60.4284V14.0768ZM88.5868 16.5175H83.3226V13.4167H88.2986V11.8048H83.3226V8.86513H88.5868V7.15351H81.3136V18.2292H88.5868V16.5175ZM95.3305 18.2292V7.15351H99.5433C102.884 7.15351 104.831 9.16447 104.831 12.6414C104.831 16.1952 102.907 18.2292 99.5433 18.2292H95.3305ZM99.2785 8.86513H97.3395V16.5175H99.2785C101.513 16.5175 102.783 15.1436 102.783 12.6721C102.783 10.2544 101.482 8.86513 99.2785 8.86513ZM114.409 16.5175H109.145V13.4167H114.121V11.8048H109.145V8.86513H114.409V7.15351H107.136V18.2292H114.409V16.5175ZM126.191 7.15351L122.305 18.2292H119.992L116.068 7.15351H118.287L121.114 15.9189H121.246L124.05 7.15351H126.191ZM135.403 16.5175H130.139V13.4167H135.115V11.8048H130.139V8.86513H135.403V7.15351H128.13V18.2292H135.403V16.5175ZM139.904 16.4945H145.059V18.2292H137.895V7.15351H139.904V16.4945ZM151.694 6.87719C148.431 6.87719 146.375 9.11075 146.375 12.6875C146.375 16.2643 148.4 18.5055 151.694 18.5055C154.972 18.5055 157.005 16.2566 157.005 12.6875C157.005 9.11075 154.965 6.87719 151.694 6.87719ZM151.694 8.63487C153.687 8.63487 154.957 10.2083 154.957 12.6875C154.957 15.159 153.695 16.7478 151.694 16.7478C149.669 16.7478 148.431 15.159 148.431 12.6875C148.431 10.2083 149.7 8.63487 151.694 8.63487ZM159.31 18.2292V7.15351H163.842C166.085 7.15351 167.619 8.66557 167.619 10.8991C167.619 13.0943 166.03 14.5987 163.756 14.5987H161.319V18.2292H159.31ZM163.312 8.8114H161.319V12.9561H163.305C164.737 12.9561 165.578 12.2193 165.578 10.8991C165.578 9.54057 164.761 8.8114 163.312 8.8114ZM181.441 18.2292V7.15351H179.089L175.71 15.2741H175.569L172.19 7.15351H169.838V18.2292H171.707V10.4386H171.816L174.923 17.8454H176.356L179.463 10.4386H179.572V18.2292H181.441ZM186.222 16.5175H191.486V18.2292H184.213V7.15351H191.486V8.86513H186.222V11.8048H191.198V13.4167H186.222V16.5175ZM195.917 18.2292V10.6919H196.05L201.563 18.2292H203.299V7.15351H201.368V14.6831H201.236L195.723 7.15351H193.978V18.2292H195.917ZM210.884 8.86513V18.2292H208.875V8.86513H205.418V7.15351H214.349V8.86513H210.884Z"
        />
      </svg>