<svg width="24" height="31" viewBox="0 0 24 31" fill="none" xmlns="http://www.w3.org/2000/svg">
<path d="M16.3394 10.9609L21.1318 15.8845C22.2162 16.9952 22.7059 18.5518 22.4436 20.0822L20.9219 29.1948H15.3687" fill="white"/>
<path d="M16.3394 10.9609L21.1318 15.8845C22.2162 16.9952 22.7059 18.5518 22.4436 20.0822L20.9219 29.1948H15.3687" stroke="#37CDAB" stroke-width="2" stroke-miterlimit="10" stroke-linecap="round"/>
<path d="M14.5639 29.1947H2.73156C1.76958 29.1947 1 28.4163 1 27.4631V2.73156C1 1.76958 1.77833 1 2.73156 1H14.5639C15.5259 1 16.2954 1.77833 16.2954 2.73156V27.4631C16.2954 28.4163 15.5171 29.1947 14.5639 29.1947Z" fill="white" stroke="#3E4045" stroke-width="2" stroke-miterlimit="10"/>
<path d="M1.0791 25.6094H16.3833" stroke="#3E4045" stroke-width="2" stroke-miterlimit="10"/>
<path d="M19.4002 29.1946H11.0922C11.0922 29.1946 10.8298 22.7231 14.6778 21.936L10.7599 18.0182C9.94658 17.2048 9.94658 15.9018 10.7599 15.0885C11.5732 14.2752 12.8762 14.2752 13.6895 15.0885L17.6074 19.0064" fill="white"/>
<path d="M19.4002 29.1946H11.0922C11.0922 29.1946 10.8298 22.7231 14.6778 21.936L10.7599 18.0182C9.94658 17.2048 9.94658 15.9018 10.7599 15.0885C11.5732 14.2752 12.8762 14.2752 13.6895 15.0885L17.6074 19.0064" stroke="#37CDAB" stroke-width="2" stroke-miterlimit="10" stroke-linecap="round" stroke-linejoin="round"/>
</svg>
