<svg width="70" height="50" viewBox="0 0 70 50" fill="none" xmlns="http://www.w3.org/2000/svg">
<path opacity="0.8" fill-rule="evenodd" clip-rule="evenodd" d="M28.348 50H2.04628C0.916034 50 0 49.0862 0 47.9586L2.29401e-06 21.7203C2.31301e-06 21.5007 0.0357059 21.2828 0.104981 21.0749L6.68028 1.39599C6.95898 0.562437 7.74073 0 8.62159 0H15.1969C16.3272 0 17.2432 0.91436 17.2432 2.04136V19.6789H28.348C29.4783 19.6789 30.3943 20.5927 30.3943 21.7203V47.9586C30.3943 49.0862 29.4783 50 28.348 50ZM67.9535 50H41.6518C40.5215 50 39.6055 49.0862 39.6055 47.9586V21.7203C39.6055 21.5007 39.6412 21.2828 39.711 21.0749L46.2863 1.39599C46.5645 0.562437 47.3462 0 48.2271 0H54.8029C55.9332 0 56.8492 0.91436 56.8492 2.04136V19.6789H67.9535C69.0838 19.6789 69.9998 20.5927 69.9998 21.7203V47.9586C69.9998 49.0862 69.0838 50 67.9535 50Z" fill="#37CDAB"/>
</svg>
